<svg xmlns="http://www.w3.org/2000/svg" width="24" height="24" viewBox="0 0 24 24">
  <g id="Group_1854" data-name="Group 1854" transform="translate(30 -2085)">
    <path id="Path_1396" data-name="Path 1396" d="M-285.646,72.237l-3.564-3.564,3.552-3.552a.615.615,0,0,0,.181-.437.614.614,0,0,0-.181-.437.614.614,0,0,0-.437-.181.614.614,0,0,0-.437.181l-3.552,3.552-3.552-3.552a.614.614,0,0,0-.437-.181.614.614,0,0,0-.437.181.615.615,0,0,0-.181.438.614.614,0,0,0,.181.437l3.552,3.552-3.565,3.564a.615.615,0,0,0-.181.438.615.615,0,0,0,.181.438.615.615,0,0,0,.437.181.615.615,0,0,0,.437-.181l3.565-3.565,3.564,3.564a.614.614,0,0,0,.438.181.614.614,0,0,0,.437-.181.614.614,0,0,0,.181-.437A.614.614,0,0,0-285.646,72.237Z" transform="translate(272.706 2027.936)" fill="#575757"/>
    <rect id="Rectangle_816" data-name="Rectangle 816" width="24" height="24" transform="translate(-30 2085)" fill="none"/>
  </g>
</svg>
